<svg width="1042" height="790" viewBox="0 0 1042 790" fill="none" xmlns="http://www.w3.org/2000/svg">
<rect width="172" height="228" fill="white"/>
<path d="M98.6874 50.0168C97.1277 51.9144 96.3474 53.7515 95.4965 56.0382C97.5142 56.0456 99.5904 55.2124 101.801 54.0543C100.609 56.3768 99.7012 59.4637 99.9449 61.3274C98.2853 60.4814 97.0792 59.7684 95.1183 59.5619C95.1888 61.6605 95.5909 63.3902 96.1761 65.4026C93.1364 64.6676 90.2423 64.6896 87.2355 65.1769C88.9582 63.3324 90.3961 61.6027 91.5089 59.5133C89.4336 59.2013 87.4856 59.4077 85.1978 60.5364C86.2089 58.4039 86.9278 55.9391 87.3253 53.445C88.6652 54.8233 90.3339 55.7409 92.1747 56.2428C92.2672 54.5618 91.9687 52.4145 91.2571 50.226C93.6923 50.4334 96.2476 50.3416 98.6874 50.0168V50.0168Z" fill="#E31937"/>
<path d="M69.6959 58.6947C69.0127 63.4957 71.1127 64.7381 71.284 69.3428C73.9372 68.4325 80.8345 67.9379 82.9804 67.7406C80.2236 68.9271 76.5208 72.994 73.765 74.4916C78.2582 77.1876 78.7381 80.8884 81.0333 82.8457C78.4625 81.8133 74.0636 83.3614 70.5797 80.5287C70.2427 83.1063 67.05 89.1507 66.3274 93.6709C64.59 85.0773 63.3527 82.9851 63.1347 79.4624C58.4336 81.2563 54.2546 79.9019 51.0527 79.7744C54.9845 77.8033 57.9409 76.815 60.8414 73.9621C58.1955 70.1558 57.4601 67.4433 55.697 65.9687C58.3118 66.8239 63.7694 68.7574 65.4307 68.9831C65.6606 64.16 68.2864 60.4106 69.6959 58.6947V58.6947ZM122.849 64.9088C121.333 66.957 119.358 69.6621 118.606 73.9612C122.184 73.6153 126.821 74.4053 127.815 75.2037C124.645 75.9525 120.703 79.2862 118.961 81.0664C120.224 84.335 121.082 87.5476 122.506 92.7863C119.98 89.6315 117.383 87.2934 114.358 84.257C112.092 87.5476 109.877 91.2465 107.804 94.5518C108.282 90.0123 106.315 86.1913 108.862 82.485C105.088 81.1279 101.023 81.1279 99.1104 79.6386C103.607 78.7907 106.019 75.9158 109.385 75.7331C109.385 75.7331 106.315 68.1838 103.429 65.9045C107.421 66.7019 111.367 68.5518 113.471 70.9459C115.301 69.4144 118.106 65.5163 122.849 64.9088V64.9088Z" fill="#E31937"/>
<path d="M51.2954 57.2036C51.2954 57.2036 53.5118 50.5526 59.6563 44.3798C65.82 38.2243 72.4654 36 80.3519 36C88.2099 36 108.905 38.7189 118.743 38.7189C128.592 38.7189 131.055 37.7297 134 36C133.263 37.9766 133.263 38.7189 130.806 41.1763C126.859 45.1304 122.184 46.3526 112.091 46.3526C96.5891 46.3526 88.7145 45.6176 79.1145 45.6176C69.5054 45.6176 64.3317 46.2811 59.9118 49.0716C55.2336 52.0282 51.2954 57.2036 51.2954 57.2036V57.2036Z" fill="#E31937"/>
<path d="M59.2267 96.1613C59.1709 98.6398 59.4594 103.083 63.3536 108.139C63.8472 105.92 67.6664 106.782 74.4712 102.193C72.6715 104.29 69.9917 109.226 68.0904 111.606C72.1064 112.835 72.5927 117.884 76.0684 120.658C72.7091 118.746 67.7131 118.47 65.6936 117.142C66.8384 121.676 64.2227 126.634 65.0763 130.962C63.7538 129.099 60.6363 120.432 60.1197 120.137C56.2218 121.463 51.5473 126.139 50.3722 125.637C54.37 121.331 54.0055 116.767 56.2218 114.798C53.0502 114.657 47.6751 110.54 46.1117 108.239C50.8018 109.616 53.8782 109.99 57.2861 108.946C57.2861 106.734 57.5736 97.78 59.2267 96.1613ZM116.299 96.1613C115.3 101.351 116.654 104.311 116.299 109.119C118.005 108.258 121.569 109.247 126.756 108.06C123.049 110.484 120.223 112.701 118.076 115.335C120.452 118.618 120.587 122.07 123.564 125.99C120.587 124.421 116.28 121.823 114.004 120.835C112.596 122.692 110.985 126.138 110.455 132.028C109.508 127.373 107.913 122.812 108.147 117.996C103.478 119.231 101.389 117.883 96.7988 118.709C99.8737 116.881 102.945 115.048 106.014 113.209C105.445 112.579 103.235 111.216 99.8211 101.126C104.16 104.988 105.817 104.685 110.625 108.406C110.747 104.438 113.698 103.331 116.299 96.1613V96.1613Z" fill="#E31937"/>
<path d="M81.0855 102.836C84.7681 84.5819 91.4126 69.7889 91.4126 69.7889C92.6445 88.7691 88.47 104.07 91.8431 137.535H95.566C97.1615 137.535 97.2201 135.756 98.5783 135.756C99.7799 135.756 101.263 138.475 104.599 138.411C101.504 140.805 100.159 142.501 98.9291 142.501C97.6908 142.501 97.1917 141.264 95.9168 141.264C93.1344 141.264 91.5409 141.681 89.0726 141.681C89.0726 144.139 88.9563 147.59 88.9563 150.556C88.9563 152.315 91.3101 151.673 91.3101 153.508C91.3101 154.836 88.2731 158.134 87.7648 161.855C85.978 158.396 82.9785 156.355 82.9785 154.229C82.9785 152.408 84.7489 152.777 84.7489 151.03C84.7489 147.478 84.0373 144.526 84.0373 141.978C84.0373 141.978 80.4682 142.055 77.6336 142.055C75.8495 142.055 76.5135 144.718 74.2971 145.17C72.7072 145.142 67.9146 143.037 67.9146 143.037C69.5036 142.056 71.4781 138.109 73.0736 138.109C74.4135 138.109 74.6351 139.464 75.6599 139.464C75.6599 139.464 81.134 138.83 82.3145 138.342C82.0581 137.565 80.8345 109.247 81.0855 102.836V102.836Z" fill="#E31937"/>
<path d="M42.6819 106.783C42.6819 106.783 38 115.667 38 124.564C38 136.893 43.6691 144.273 52.7682 153.395C58.8504 159.489 72.5131 168.005 80.5855 176.816C85.5979 182.301 89.4418 185.949 88.471 192C89.8191 189.655 90.4346 185.949 90.4346 182.258C90.4346 173.984 85.5659 169.122 78.9204 162.72C71.8793 155.91 62.8124 149.074 55.4855 141.809C47.5148 133.9 42.1882 124.825 42.1882 116.16C42.1882 112.213 42.6819 106.783 42.6819 106.783V106.783Z" fill="#E31937"/>
<rect width="870" height="790" transform="matrix(-1 0 0 1 1042 0)" fill="#94E1F3"/>
<path d="M273.648 54.7227L266.723 61.5781C262.34 56.9375 257.23 54.6172 251.395 54.6172C246.309 54.6172 242.043 56.3047 238.598 59.6797C235.176 63.0547 233.465 67.1562 233.465 71.9844C233.465 76.9766 235.246 81.207 238.809 84.6758C242.371 88.1445 246.766 89.8789 251.992 89.8789C255.391 89.8789 258.25 89.1641 260.57 87.7344C262.914 86.3047 264.801 84.0664 266.23 81.0195H251.254V71.7734H277.27L277.34 73.9531C277.34 78.4766 276.168 82.7656 273.824 86.8203C271.48 90.875 268.445 93.9688 264.719 96.1016C260.992 98.2344 256.621 99.3008 251.605 99.3008C246.238 99.3008 241.445 98.1406 237.227 95.8203C233.031 93.4766 229.703 90.1484 227.242 85.8359C224.805 81.5234 223.586 76.8711 223.586 71.8789C223.586 65.0352 225.848 59.082 230.371 54.0195C235.738 47.9961 242.723 44.9844 251.324 44.9844C255.824 44.9844 260.031 45.8164 263.945 47.4805C267.25 48.8867 270.484 51.3008 273.648 54.7227ZM323.641 81.6523H292.809C293.254 84.3711 294.438 86.5391 296.359 88.1562C298.305 89.75 300.777 90.5469 303.777 90.5469C307.363 90.5469 310.445 89.293 313.023 86.7852L321.109 90.582C319.094 93.4414 316.68 95.5625 313.867 96.9453C311.055 98.3047 307.715 98.9844 303.848 98.9844C297.848 98.9844 292.961 97.0977 289.188 93.3242C285.414 89.5273 283.527 84.7812 283.527 79.0859C283.527 73.25 285.402 68.4102 289.152 64.5664C292.926 60.6992 297.648 58.7656 303.32 58.7656C309.344 58.7656 314.242 60.6992 318.016 64.5664C321.789 68.4102 323.676 73.4961 323.676 79.8242L323.641 81.6523ZM314.008 74.0938C313.375 71.9609 312.121 70.2266 310.246 68.8906C308.395 67.5547 306.238 66.8867 303.777 66.8867C301.105 66.8867 298.762 67.6367 296.746 69.1367C295.48 70.0742 294.309 71.7266 293.23 74.0938H314.008ZM331.375 59.75H341.008V64.1445C342.648 62.3398 344.465 60.9922 346.457 60.1016C348.473 59.2109 350.664 58.7656 353.031 58.7656C355.422 58.7656 357.578 59.3516 359.5 60.5234C361.422 61.6953 362.969 63.4062 364.141 65.6562C365.664 63.4062 367.527 61.6953 369.73 60.5234C371.957 59.3516 374.383 58.7656 377.008 58.7656C379.727 58.7656 382.117 59.3984 384.18 60.6641C386.242 61.9297 387.719 63.582 388.609 65.6211C389.523 67.6602 389.98 70.9766 389.98 75.5703V98H380.312V78.5938C380.312 74.2578 379.773 71.3281 378.695 69.8047C377.617 68.2578 376 67.4844 373.844 67.4844C372.203 67.4844 370.727 67.9531 369.414 68.8906C368.125 69.8281 367.164 71.1289 366.531 72.793C365.898 74.4336 365.582 77.082 365.582 80.7383V98H355.914V79.4727C355.914 76.0508 355.656 73.5781 355.141 72.0547C354.648 70.5078 353.898 69.3594 352.891 68.6094C351.883 67.8594 350.664 67.4844 349.234 67.4844C347.641 67.4844 346.188 67.9648 344.875 68.9258C343.586 69.8633 342.613 71.1875 341.957 72.8984C341.324 74.6094 341.008 77.3047 341.008 80.9844V98H331.375V59.75ZM437.477 81.6523H406.645C407.09 84.3711 408.273 86.5391 410.195 88.1562C412.141 89.75 414.613 90.5469 417.613 90.5469C421.199 90.5469 424.281 89.293 426.859 86.7852L434.945 90.582C432.93 93.4414 430.516 95.5625 427.703 96.9453C424.891 98.3047 421.551 98.9844 417.684 98.9844C411.684 98.9844 406.797 97.0977 403.023 93.3242C399.25 89.5273 397.363 84.7812 397.363 79.0859C397.363 73.25 399.238 68.4102 402.988 64.5664C406.762 60.6992 411.484 58.7656 417.156 58.7656C423.18 58.7656 428.078 60.6992 431.852 64.5664C435.625 68.4102 437.512 73.4961 437.512 79.8242L437.477 81.6523ZM427.844 74.0938C427.211 71.9609 425.957 70.2266 424.082 68.8906C422.23 67.5547 420.074 66.8867 417.613 66.8867C414.941 66.8867 412.598 67.6367 410.582 69.1367C409.316 70.0742 408.145 71.7266 407.066 74.0938H427.844ZM483.602 81.6523H452.77C453.215 84.3711 454.398 86.5391 456.32 88.1562C458.266 89.75 460.738 90.5469 463.738 90.5469C467.324 90.5469 470.406 89.293 472.984 86.7852L481.07 90.582C479.055 93.4414 476.641 95.5625 473.828 96.9453C471.016 98.3047 467.676 98.9844 463.809 98.9844C457.809 98.9844 452.922 97.0977 449.148 93.3242C445.375 89.5273 443.488 84.7812 443.488 79.0859C443.488 73.25 445.363 68.4102 449.113 64.5664C452.887 60.6992 457.609 58.7656 463.281 58.7656C469.305 58.7656 474.203 60.6992 477.977 64.5664C481.75 68.4102 483.637 73.4961 483.637 79.8242L483.602 81.6523ZM473.969 74.0938C473.336 71.9609 472.082 70.2266 470.207 68.8906C468.355 67.5547 466.199 66.8867 463.738 66.8867C461.066 66.8867 458.723 67.6367 456.707 69.1367C455.441 70.0742 454.27 71.7266 453.191 74.0938H473.969ZM491.406 59.75H500.969V63.6523C503.148 61.8242 505.117 60.5586 506.875 59.8555C508.656 59.1289 510.473 58.7656 512.324 58.7656C516.121 58.7656 519.344 60.0898 521.992 62.7383C524.219 64.9883 525.332 68.3164 525.332 72.7227V98H515.84V81.2305C515.84 76.6602 515.629 73.625 515.207 72.125C514.809 70.625 514.094 69.4883 513.062 68.7148C512.055 67.918 510.801 67.5195 509.301 67.5195C507.355 67.5195 505.68 68.1758 504.273 69.4883C502.891 70.7773 501.93 72.5703 501.391 74.8672C501.109 76.0625 500.969 78.6523 500.969 82.6367V98H491.406V59.75ZM535.809 45.6523H545.371V59.75H551.066V68.0117H545.371V98H535.809V68.0117H530.887V59.75H535.809V45.6523ZM594.555 81.6523H563.723C564.168 84.3711 565.352 86.5391 567.273 88.1562C569.219 89.75 571.691 90.5469 574.691 90.5469C578.277 90.5469 581.359 89.293 583.938 86.7852L592.023 90.582C590.008 93.4414 587.594 95.5625 584.781 96.9453C581.969 98.3047 578.629 98.9844 574.762 98.9844C568.762 98.9844 563.875 97.0977 560.102 93.3242C556.328 89.5273 554.441 84.7812 554.441 79.0859C554.441 73.25 556.316 68.4102 560.066 64.5664C563.84 60.6992 568.562 58.7656 574.234 58.7656C580.258 58.7656 585.156 60.6992 588.93 64.5664C592.703 68.4102 594.59 73.4961 594.59 79.8242L594.555 81.6523ZM584.922 74.0938C584.289 71.9609 583.035 70.2266 581.16 68.8906C579.309 67.5547 577.152 66.8867 574.691 66.8867C572.02 66.8867 569.676 67.6367 567.66 69.1367C566.395 70.0742 565.223 71.7266 564.145 74.0938H584.922ZM225.871 121.285H235.855V140.797H253.152V121.285H263.102V173H253.152V150.324H235.855V173H225.871V121.285ZM302.125 134.75H311.688V173H302.125V168.957C300.25 170.738 298.363 172.027 296.465 172.824C294.59 173.598 292.551 173.984 290.348 173.984C285.402 173.984 281.125 172.074 277.516 168.254C273.906 164.41 272.102 159.641 272.102 153.945C272.102 148.039 273.848 143.199 277.34 139.426C280.832 135.652 285.074 133.766 290.066 133.766C292.363 133.766 294.52 134.199 296.535 135.066C298.551 135.934 300.414 137.234 302.125 138.969V134.75ZM292.035 142.625C289.059 142.625 286.586 143.68 284.617 145.789C282.648 147.875 281.664 150.559 281.664 153.84C281.664 157.145 282.66 159.863 284.652 161.996C286.668 164.129 289.141 165.195 292.07 165.195C295.094 165.195 297.602 164.152 299.594 162.066C301.586 159.957 302.582 157.203 302.582 153.805C302.582 150.477 301.586 147.781 299.594 145.719C297.602 143.656 295.082 142.625 292.035 142.625ZM349.656 134.75H359.219V173H349.656V168.957C347.781 170.738 345.895 172.027 343.996 172.824C342.121 173.598 340.082 173.984 337.879 173.984C332.934 173.984 328.656 172.074 325.047 168.254C321.438 164.41 319.633 159.641 319.633 153.945C319.633 148.039 321.379 143.199 324.871 139.426C328.363 135.652 332.605 133.766 337.598 133.766C339.895 133.766 342.051 134.199 344.066 135.066C346.082 135.934 347.945 137.234 349.656 138.969V134.75ZM339.566 142.625C336.59 142.625 334.117 143.68 332.148 145.789C330.18 147.875 329.195 150.559 329.195 153.84C329.195 157.145 330.191 159.863 332.184 161.996C334.199 164.129 336.672 165.195 339.602 165.195C342.625 165.195 345.133 164.152 347.125 162.066C349.117 159.957 350.113 157.203 350.113 153.805C350.113 150.477 349.117 147.781 347.125 145.719C345.133 143.656 342.613 142.625 339.566 142.625ZM366.672 134.75H374.898V139.566C375.789 137.668 376.973 136.227 378.449 135.242C379.926 134.258 381.543 133.766 383.301 133.766C384.543 133.766 385.844 134.094 387.203 134.75L384.215 143.012C383.09 142.449 382.164 142.168 381.438 142.168C379.961 142.168 378.707 143.082 377.676 144.91C376.668 146.738 376.164 150.324 376.164 155.668L376.199 157.531V173H366.672V134.75ZM390.965 119.984H400.562V173H390.965V119.984ZM447.602 156.652H416.77C417.215 159.371 418.398 161.539 420.32 163.156C422.266 164.75 424.738 165.547 427.738 165.547C431.324 165.547 434.406 164.293 436.984 161.785L445.07 165.582C443.055 168.441 440.641 170.562 437.828 171.945C435.016 173.305 431.676 173.984 427.809 173.984C421.809 173.984 416.922 172.098 413.148 168.324C409.375 164.527 407.488 159.781 407.488 154.086C407.488 148.25 409.363 143.41 413.113 139.566C416.887 135.699 421.609 133.766 427.281 133.766C433.305 133.766 438.203 135.699 441.977 139.566C445.75 143.41 447.637 148.496 447.637 154.824L447.602 156.652ZM437.969 149.094C437.336 146.961 436.082 145.227 434.207 143.891C432.355 142.555 430.199 141.887 427.738 141.887C425.066 141.887 422.723 142.637 420.707 144.137C419.441 145.074 418.27 146.727 417.191 149.094H437.969ZM455.336 134.75H464.969V139.145C466.609 137.34 468.426 135.992 470.418 135.102C472.434 134.211 474.625 133.766 476.992 133.766C479.383 133.766 481.539 134.352 483.461 135.523C485.383 136.695 486.93 138.406 488.102 140.656C489.625 138.406 491.488 136.695 493.691 135.523C495.918 134.352 498.344 133.766 500.969 133.766C503.688 133.766 506.078 134.398 508.141 135.664C510.203 136.93 511.68 138.582 512.57 140.621C513.484 142.66 513.941 145.977 513.941 150.57V173H504.273V153.594C504.273 149.258 503.734 146.328 502.656 144.805C501.578 143.258 499.961 142.484 497.805 142.484C496.164 142.484 494.688 142.953 493.375 143.891C492.086 144.828 491.125 146.129 490.492 147.793C489.859 149.434 489.543 152.082 489.543 155.738V173H479.875V154.473C479.875 151.051 479.617 148.578 479.102 147.055C478.609 145.508 477.859 144.359 476.852 143.609C475.844 142.859 474.625 142.484 473.195 142.484C471.602 142.484 470.148 142.965 468.836 143.926C467.547 144.863 466.574 146.188 465.918 147.898C465.285 149.609 464.969 152.305 464.969 155.984V173H455.336V134.75Z" fill="black"/>
<path d="M231.812 392V288.57H248.055C257.477 288.57 264.367 289.18 268.727 290.398C274.914 292.039 279.836 295.086 283.492 299.539C287.148 303.992 288.977 309.242 288.977 315.289C288.977 319.227 288.133 322.812 286.445 326.047C284.805 329.234 282.109 332.234 278.359 335.047C284.641 338 289.234 341.703 292.141 346.156C295.047 350.562 296.5 355.789 296.5 361.836C296.5 367.648 295 372.945 292 377.727C289 382.508 285.133 386.094 280.398 388.484C275.664 390.828 269.125 392 260.781 392H231.812ZM251.5 307.344V329.141H255.789C260.57 329.141 264.109 328.133 266.406 326.117C268.75 324.102 269.922 321.359 269.922 317.891C269.922 314.656 268.82 312.102 266.617 310.227C264.414 308.305 261.062 307.344 256.562 307.344H251.5ZM251.5 346.719V373.227H256.422C264.578 373.227 270.062 372.195 272.875 370.133C275.734 368.07 277.164 365.07 277.164 361.133C277.164 356.68 275.5 353.164 272.172 350.586C268.844 348.008 263.312 346.719 255.578 346.719H251.5ZM315.273 288.57H336.156C347.453 288.57 355.586 289.625 360.555 291.734C365.57 293.797 369.508 297.172 372.367 301.859C375.273 306.5 376.727 312.078 376.727 318.594C376.727 325.812 374.828 331.812 371.031 336.594C367.281 341.375 362.172 344.703 355.703 346.578C351.906 347.656 344.992 348.195 334.961 348.195V392H315.273V288.57ZM334.961 329H341.219C346.141 329 349.562 328.648 351.484 327.945C353.406 327.242 354.906 326.094 355.984 324.5C357.109 322.859 357.672 320.891 357.672 318.594C357.672 314.609 356.125 311.703 353.031 309.875C350.781 308.516 346.609 307.836 340.516 307.836H334.961V329ZM406.047 288.57H425.312L449.219 360.711L473.477 288.57H492.461L509.898 392H490.914L479.805 326.68L457.797 392H440.43L418.703 326.68L407.383 392H388.188L406.047 288.57ZM525.789 288.57H544.633L589 356.633V288.57H608.688V392H589.773L545.477 324.148V392H525.789V288.57ZM248.758 491.5V499.938C252.227 496.469 255.977 493.867 260.008 492.133C264.039 490.398 268.352 489.531 272.945 489.531C282.93 489.531 291.414 493.305 298.398 500.852C305.383 508.398 308.875 518.078 308.875 529.891C308.875 541.281 305.266 550.82 298.047 558.508C290.828 566.148 282.273 569.969 272.383 569.969C267.977 569.969 263.875 569.195 260.078 567.648C256.281 566.055 252.508 563.477 248.758 559.914V595.984H229.703V491.5H248.758ZM268.938 507.25C262.891 507.25 257.875 509.312 253.891 513.438C249.906 517.562 247.914 522.953 247.914 529.609C247.914 536.406 249.906 541.914 253.891 546.133C257.875 550.305 262.891 552.391 268.938 552.391C274.797 552.391 279.719 550.258 283.703 545.992C287.734 541.727 289.75 536.289 289.75 529.68C289.75 523.117 287.781 517.75 283.844 513.578C279.906 509.359 274.938 507.25 268.938 507.25ZM320.266 491.5H336.719V501.133C338.5 497.336 340.867 494.453 343.82 492.484C346.773 490.516 350.008 489.531 353.523 489.531C356.008 489.531 358.609 490.188 361.328 491.5L355.352 508.023C353.102 506.898 351.25 506.336 349.797 506.336C346.844 506.336 344.336 508.164 342.273 511.82C340.258 515.477 339.25 522.648 339.25 533.336L339.32 537.062V568H320.266V491.5ZM406.82 489.531C414.039 489.531 420.812 491.336 427.141 494.945C433.516 498.555 438.484 503.453 442.047 509.641C445.609 515.828 447.391 522.508 447.391 529.68C447.391 536.898 445.586 543.648 441.977 549.93C438.414 556.211 433.539 561.133 427.352 564.695C421.164 568.211 414.344 569.969 406.891 569.969C395.922 569.969 386.547 566.078 378.766 558.297C371.031 550.469 367.164 540.977 367.164 529.82C367.164 517.867 371.547 507.906 380.312 499.938C388 493 396.836 489.531 406.82 489.531ZM407.102 507.602C401.148 507.602 396.18 509.688 392.195 513.859C388.258 517.984 386.289 523.281 386.289 529.75C386.289 536.406 388.234 541.797 392.125 545.922C396.062 550.047 401.031 552.109 407.031 552.109C413.031 552.109 418.023 550.023 422.008 545.852C425.992 541.68 427.984 536.312 427.984 529.75C427.984 523.188 426.016 517.867 422.078 513.789C418.188 509.664 413.195 507.602 407.102 507.602ZM538.023 506.969L522.062 515.758C519.062 512.617 516.086 510.438 513.133 509.219C510.227 508 506.805 507.391 502.867 507.391C495.695 507.391 489.883 509.547 485.43 513.859C481.023 518.125 478.82 523.609 478.82 530.312C478.82 536.828 480.953 542.148 485.219 546.273C489.484 550.398 495.086 552.461 502.023 552.461C510.602 552.461 517.281 549.531 522.062 543.672L537.18 554.008C528.977 564.648 517.398 569.969 502.445 569.969C488.992 569.969 478.445 565.984 470.805 558.016C463.211 550.047 459.414 540.719 459.414 530.031C459.414 522.625 461.266 515.805 464.969 509.57C468.672 503.336 473.828 498.438 480.438 494.875C487.094 491.312 494.523 489.531 502.727 489.531C510.32 489.531 517.141 491.055 523.188 494.102C529.234 497.102 534.18 501.391 538.023 506.969ZM632.031 535.305H570.367C571.258 540.742 573.625 545.078 577.469 548.312C581.359 551.5 586.305 553.094 592.305 553.094C599.477 553.094 605.641 550.586 610.797 545.57L626.969 553.164C622.938 558.883 618.109 563.125 612.484 565.891C606.859 568.609 600.18 569.969 592.445 569.969C580.445 569.969 570.672 566.195 563.125 558.648C555.578 551.055 551.805 541.562 551.805 530.172C551.805 518.5 555.555 508.82 563.055 501.133C570.602 493.398 580.047 489.531 591.391 489.531C603.438 489.531 613.234 493.398 620.781 501.133C628.328 508.82 632.102 518.992 632.102 531.648L632.031 535.305ZM612.766 520.188C611.5 515.922 608.992 512.453 605.242 509.781C601.539 507.109 597.227 505.773 592.305 505.773C586.961 505.773 582.273 507.273 578.242 510.273C575.711 512.148 573.367 515.453 571.211 520.188H612.766ZM694.469 502.188L682.586 514.07C677.758 509.289 673.375 506.898 669.438 506.898C667.281 506.898 665.594 507.367 664.375 508.305C663.156 509.195 662.547 510.32 662.547 511.68C662.547 512.711 662.922 513.672 663.672 514.562C664.469 515.406 666.391 516.578 669.438 518.078L676.469 521.594C683.875 525.25 688.961 528.977 691.727 532.773C694.492 536.57 695.875 541.023 695.875 546.133C695.875 552.93 693.367 558.602 688.352 563.148C683.383 567.695 676.703 569.969 668.312 569.969C657.156 569.969 648.25 565.609 641.594 556.891L653.406 544.023C655.656 546.648 658.281 548.781 661.281 550.422C664.328 552.016 667.023 552.812 669.367 552.812C671.898 552.812 673.938 552.203 675.484 550.984C677.031 549.766 677.805 548.359 677.805 546.766C677.805 543.812 675.016 540.93 669.438 538.117L662.969 534.883C650.594 528.648 644.406 520.844 644.406 511.469C644.406 505.422 646.727 500.266 651.367 496C656.055 491.688 662.031 489.531 669.297 489.531C674.266 489.531 678.93 490.633 683.289 492.836C687.695 494.992 691.422 498.109 694.469 502.188ZM757.891 502.188L746.008 514.07C741.18 509.289 736.797 506.898 732.859 506.898C730.703 506.898 729.016 507.367 727.797 508.305C726.578 509.195 725.969 510.32 725.969 511.68C725.969 512.711 726.344 513.672 727.094 514.562C727.891 515.406 729.812 516.578 732.859 518.078L739.891 521.594C747.297 525.25 752.383 528.977 755.148 532.773C757.914 536.57 759.297 541.023 759.297 546.133C759.297 552.93 756.789 558.602 751.773 563.148C746.805 567.695 740.125 569.969 731.734 569.969C720.578 569.969 711.672 565.609 705.016 556.891L716.828 544.023C719.078 546.648 721.703 548.781 724.703 550.422C727.75 552.016 730.445 552.812 732.789 552.812C735.32 552.812 737.359 552.203 738.906 550.984C740.453 549.766 741.227 548.359 741.227 546.766C741.227 543.812 738.438 540.93 732.859 538.117L726.391 534.883C714.016 528.648 707.828 520.844 707.828 511.469C707.828 505.422 710.148 500.266 714.789 496C719.477 491.688 725.453 489.531 732.719 489.531C737.688 489.531 742.352 490.633 746.711 492.836C751.117 494.992 754.844 498.109 757.891 502.188ZM851.125 535.305H789.461C790.352 540.742 792.719 545.078 796.562 548.312C800.453 551.5 805.398 553.094 811.398 553.094C818.57 553.094 824.734 550.586 829.891 545.57L846.062 553.164C842.031 558.883 837.203 563.125 831.578 565.891C825.953 568.609 819.273 569.969 811.539 569.969C799.539 569.969 789.766 566.195 782.219 558.648C774.672 551.055 770.898 541.562 770.898 530.172C770.898 518.5 774.648 508.82 782.148 501.133C789.695 493.398 799.141 489.531 810.484 489.531C822.531 489.531 832.328 493.398 839.875 501.133C847.422 508.82 851.195 518.992 851.195 531.648L851.125 535.305ZM831.859 520.188C830.594 515.922 828.086 512.453 824.336 509.781C820.633 507.109 816.32 505.773 811.398 505.773C806.055 505.773 801.367 507.273 797.336 510.273C794.805 512.148 792.461 515.453 790.305 520.188H831.859ZM866.734 491.5H885.859V499.305C890.219 495.648 894.156 493.117 897.672 491.711C901.234 490.258 904.867 489.531 908.57 489.531C916.164 489.531 922.609 492.18 927.906 497.477C932.359 501.977 934.586 508.633 934.586 517.445V568H915.602V534.461C915.602 525.32 915.18 519.25 914.336 516.25C913.539 513.25 912.109 510.977 910.047 509.43C908.031 507.836 905.523 507.039 902.523 507.039C898.633 507.039 895.281 508.352 892.469 510.977C889.703 513.555 887.781 517.141 886.703 521.734C886.141 524.125 885.859 529.305 885.859 537.273V568H866.734V491.5Z" fill="black"/>
</svg>
